<mxfile host="app.diagrams.net" modified="2021-08-27T08:04:27.309Z" agent="5.0 (Macintosh; Intel Mac OS X 10_15_7) AppleWebKit/537.36 (KHTML, like Gecko) Chrome/92.0.4515.159 Safari/537.36" etag="klRslvDrkpYA_ErRK_Rs" version="14.9.6" type="github">
  <diagram id="ObU5dJQl5wa7S7FLGcdt" name="Page-1">
    <mxGraphModel dx="1310" dy="1368" grid="1" gridSize="10" guides="1" tooltips="1" connect="1" arrows="1" fold="1" page="1" pageScale="1" pageWidth="2336" pageHeight="1654" math="0" shadow="0">
      <root>
        <mxCell id="0" />
        <mxCell id="1" parent="0" />
        <mxCell id="wLuzzO7tyQ4Eh8L9m44y-1" value="" style="swimlane;startSize=0;" vertex="1" parent="1">
          <mxGeometry x="1520" y="210" width="620" height="330" as="geometry">
            <mxRectangle x="650" y="230" width="50" height="40" as="alternateBounds" />
          </mxGeometry>
        </mxCell>
        <mxCell id="wLuzzO7tyQ4Eh8L9m44y-2" value="输入输出模块" style="text;html=1;strokeColor=none;fillColor=none;align=center;verticalAlign=middle;whiteSpace=wrap;rounded=0;fontSize=14;" vertex="1" parent="wLuzzO7tyQ4Eh8L9m44y-1">
          <mxGeometry x="20" y="10" width="100" height="20" as="geometry" />
        </mxCell>
        <mxCell id="wLuzzO7tyQ4Eh8L9m44y-35" style="edgeStyle=orthogonalEdgeStyle;rounded=0;orthogonalLoop=1;jettySize=auto;html=1;exitX=1;exitY=0.5;exitDx=0;exitDy=0;entryX=0;entryY=0.5;entryDx=0;entryDy=0;startArrow=none;startFill=0;endArrow=none;endFill=0;" edge="1" parent="wLuzzO7tyQ4Eh8L9m44y-1" source="wLuzzO7tyQ4Eh8L9m44y-3" target="wLuzzO7tyQ4Eh8L9m44y-32">
          <mxGeometry relative="1" as="geometry" />
        </mxCell>
        <mxCell id="wLuzzO7tyQ4Eh8L9m44y-3" value="实时总线接口" style="rounded=0;whiteSpace=wrap;html=1;fontSize=14;" vertex="1" parent="wLuzzO7tyQ4Eh8L9m44y-1">
          <mxGeometry x="30" y="78.5" width="50" height="50" as="geometry" />
        </mxCell>
        <mxCell id="wLuzzO7tyQ4Eh8L9m44y-36" style="edgeStyle=orthogonalEdgeStyle;rounded=0;orthogonalLoop=1;jettySize=auto;html=1;exitX=1;exitY=0.5;exitDx=0;exitDy=0;entryX=0;entryY=0.5;entryDx=0;entryDy=0;startArrow=none;startFill=0;endArrow=none;endFill=0;" edge="1" parent="wLuzzO7tyQ4Eh8L9m44y-1" source="wLuzzO7tyQ4Eh8L9m44y-4" target="wLuzzO7tyQ4Eh8L9m44y-32">
          <mxGeometry relative="1" as="geometry" />
        </mxCell>
        <mxCell id="wLuzzO7tyQ4Eh8L9m44y-4" value="实时总线接口" style="rounded=0;whiteSpace=wrap;html=1;fontSize=14;" vertex="1" parent="wLuzzO7tyQ4Eh8L9m44y-1">
          <mxGeometry x="30" y="139.5" width="50" height="50" as="geometry" />
        </mxCell>
        <mxCell id="wLuzzO7tyQ4Eh8L9m44y-6" value="" style="edgeStyle=orthogonalEdgeStyle;rounded=0;orthogonalLoop=1;jettySize=auto;html=1;fontSize=14;startArrow=none;startFill=0;fillColor=#E6E6E6;entryX=0.005;entryY=0.376;entryDx=0;entryDy=0;entryPerimeter=0;endArrow=none;endFill=0;" edge="1" parent="wLuzzO7tyQ4Eh8L9m44y-1" source="wLuzzO7tyQ4Eh8L9m44y-8" target="wLuzzO7tyQ4Eh8L9m44y-10">
          <mxGeometry relative="1" as="geometry" />
        </mxCell>
        <mxCell id="wLuzzO7tyQ4Eh8L9m44y-8" value="总线从站控制芯片" style="rounded=0;whiteSpace=wrap;html=1;fontSize=14;" vertex="1" parent="wLuzzO7tyQ4Eh8L9m44y-1">
          <mxGeometry x="200" y="109.5" width="50" height="50" as="geometry" />
        </mxCell>
        <mxCell id="wLuzzO7tyQ4Eh8L9m44y-9" style="edgeStyle=orthogonalEdgeStyle;rounded=0;orthogonalLoop=1;jettySize=auto;html=1;exitX=0.25;exitY=1;exitDx=0;exitDy=0;entryX=0.448;entryY=0.011;entryDx=0;entryDy=0;entryPerimeter=0;fontSize=14;startArrow=none;startFill=0;fillColor=#E6E6E6;endArrow=none;endFill=0;" edge="1" parent="wLuzzO7tyQ4Eh8L9m44y-1" source="wLuzzO7tyQ4Eh8L9m44y-10" target="wLuzzO7tyQ4Eh8L9m44y-11">
          <mxGeometry relative="1" as="geometry" />
        </mxCell>
        <mxCell id="wLuzzO7tyQ4Eh8L9m44y-31" style="edgeStyle=orthogonalEdgeStyle;rounded=0;orthogonalLoop=1;jettySize=auto;html=1;exitX=1;exitY=0.5;exitDx=0;exitDy=0;entryX=0;entryY=0.5;entryDx=0;entryDy=0;endArrow=none;endFill=0;" edge="1" parent="wLuzzO7tyQ4Eh8L9m44y-1" source="wLuzzO7tyQ4Eh8L9m44y-10" target="wLuzzO7tyQ4Eh8L9m44y-18">
          <mxGeometry relative="1" as="geometry" />
        </mxCell>
        <mxCell id="wLuzzO7tyQ4Eh8L9m44y-10" value="MCU&lt;br&gt;微控制单元芯片" style="rounded=0;whiteSpace=wrap;html=1;fontSize=14;" vertex="1" parent="wLuzzO7tyQ4Eh8L9m44y-1">
          <mxGeometry x="271" y="109.5" width="85" height="66" as="geometry" />
        </mxCell>
        <mxCell id="wLuzzO7tyQ4Eh8L9m44y-11" value="高频子周期数据存储器" style="rounded=0;whiteSpace=wrap;html=1;fontSize=14;" vertex="1" parent="wLuzzO7tyQ4Eh8L9m44y-1">
          <mxGeometry x="271" y="201.5" width="59" height="50" as="geometry" />
        </mxCell>
        <mxCell id="wLuzzO7tyQ4Eh8L9m44y-47" style="edgeStyle=orthogonalEdgeStyle;rounded=0;orthogonalLoop=1;jettySize=auto;html=1;exitX=0.5;exitY=0;exitDx=0;exitDy=0;startArrow=none;startFill=0;endArrow=none;endFill=0;entryX=0.5;entryY=1;entryDx=0;entryDy=0;" edge="1" parent="wLuzzO7tyQ4Eh8L9m44y-1" source="wLuzzO7tyQ4Eh8L9m44y-18" target="wLuzzO7tyQ4Eh8L9m44y-13">
          <mxGeometry relative="1" as="geometry">
            <mxPoint x="475" y="57" as="targetPoint" />
          </mxGeometry>
        </mxCell>
        <mxCell id="wLuzzO7tyQ4Eh8L9m44y-48" style="edgeStyle=orthogonalEdgeStyle;rounded=0;orthogonalLoop=1;jettySize=auto;html=1;exitX=0.5;exitY=1;exitDx=0;exitDy=0;entryX=0.5;entryY=0;entryDx=0;entryDy=0;startArrow=none;startFill=0;endArrow=none;endFill=0;" edge="1" parent="wLuzzO7tyQ4Eh8L9m44y-1" source="wLuzzO7tyQ4Eh8L9m44y-18" target="wLuzzO7tyQ4Eh8L9m44y-38">
          <mxGeometry relative="1" as="geometry" />
        </mxCell>
        <mxCell id="wLuzzO7tyQ4Eh8L9m44y-18" value="FPGA可编程逻辑处理单元" style="rounded=0;whiteSpace=wrap;html=1;fontSize=14;" vertex="1" parent="wLuzzO7tyQ4Eh8L9m44y-1">
          <mxGeometry x="456" y="109.5" width="80" height="66" as="geometry" />
        </mxCell>
        <mxCell id="wLuzzO7tyQ4Eh8L9m44y-37" style="edgeStyle=orthogonalEdgeStyle;rounded=0;orthogonalLoop=1;jettySize=auto;html=1;exitX=1;exitY=0.5;exitDx=0;exitDy=0;entryX=0;entryY=0.5;entryDx=0;entryDy=0;startArrow=none;startFill=0;endArrow=none;endFill=0;" edge="1" parent="wLuzzO7tyQ4Eh8L9m44y-1" source="wLuzzO7tyQ4Eh8L9m44y-32" target="wLuzzO7tyQ4Eh8L9m44y-8">
          <mxGeometry relative="1" as="geometry" />
        </mxCell>
        <mxCell id="wLuzzO7tyQ4Eh8L9m44y-32" value="网络接口芯片" style="rounded=0;whiteSpace=wrap;html=1;fontSize=14;" vertex="1" parent="wLuzzO7tyQ4Eh8L9m44y-1">
          <mxGeometry x="130" y="109.5" width="50" height="50" as="geometry" />
        </mxCell>
        <mxCell id="wLuzzO7tyQ4Eh8L9m44y-13" value="数字输入输出接口" style="rounded=0;whiteSpace=wrap;html=1;fontSize=14;" vertex="1" parent="wLuzzO7tyQ4Eh8L9m44y-1">
          <mxGeometry x="391" y="20" width="210" height="35" as="geometry" />
        </mxCell>
        <mxCell id="wLuzzO7tyQ4Eh8L9m44y-38" value="模拟输入输出接口" style="rounded=0;whiteSpace=wrap;html=1;fontSize=14;" vertex="1" parent="wLuzzO7tyQ4Eh8L9m44y-1">
          <mxGeometry x="391" y="270" width="210" height="35" as="geometry" />
        </mxCell>
        <mxCell id="wLuzzO7tyQ4Eh8L9m44y-42" value="电源接口" style="rounded=0;whiteSpace=wrap;html=1;fontSize=14;" vertex="1" parent="wLuzzO7tyQ4Eh8L9m44y-1">
          <mxGeometry x="20" y="220" width="40" height="80" as="geometry" />
        </mxCell>
        <mxCell id="wLuzzO7tyQ4Eh8L9m44y-44" style="edgeStyle=orthogonalEdgeStyle;rounded=0;orthogonalLoop=1;jettySize=auto;html=1;exitX=0;exitY=0.5;exitDx=0;exitDy=0;entryX=1;entryY=0.75;entryDx=0;entryDy=0;startArrow=none;startFill=0;endArrow=none;endFill=0;" edge="1" parent="wLuzzO7tyQ4Eh8L9m44y-1" source="wLuzzO7tyQ4Eh8L9m44y-43" target="wLuzzO7tyQ4Eh8L9m44y-42">
          <mxGeometry relative="1" as="geometry" />
        </mxCell>
        <mxCell id="wLuzzO7tyQ4Eh8L9m44y-43" value="电源模块" style="rounded=0;whiteSpace=wrap;html=1;fontSize=14;" vertex="1" parent="wLuzzO7tyQ4Eh8L9m44y-1">
          <mxGeometry x="85" y="260" width="85" height="40" as="geometry" />
        </mxCell>
        <mxCell id="wLuzzO7tyQ4Eh8L9m44y-52" style="edgeStyle=orthogonalEdgeStyle;rounded=0;orthogonalLoop=1;jettySize=auto;html=1;exitX=0.5;exitY=1;exitDx=0;exitDy=0;entryX=0.2;entryY=-0.057;entryDx=0;entryDy=0;entryPerimeter=0;startArrow=none;startFill=0;endArrow=none;endFill=0;" edge="1" parent="1" source="wLuzzO7tyQ4Eh8L9m44y-50" target="wLuzzO7tyQ4Eh8L9m44y-13">
          <mxGeometry relative="1" as="geometry" />
        </mxCell>
        <mxCell id="wLuzzO7tyQ4Eh8L9m44y-50" value="数字高频输入输出装置" style="rounded=0;whiteSpace=wrap;html=1;fontSize=14;" vertex="1" parent="1">
          <mxGeometry x="1910" y="100" width="85" height="40" as="geometry" />
        </mxCell>
        <mxCell id="wLuzzO7tyQ4Eh8L9m44y-53" style="edgeStyle=orthogonalEdgeStyle;rounded=0;orthogonalLoop=1;jettySize=auto;html=1;exitX=0.5;exitY=1;exitDx=0;exitDy=0;entryX=0.722;entryY=-0.042;entryDx=0;entryDy=0;entryPerimeter=0;startArrow=none;startFill=0;endArrow=none;endFill=0;" edge="1" parent="1" source="wLuzzO7tyQ4Eh8L9m44y-51" target="wLuzzO7tyQ4Eh8L9m44y-13">
          <mxGeometry relative="1" as="geometry" />
        </mxCell>
        <mxCell id="wLuzzO7tyQ4Eh8L9m44y-51" value="数字低频输入输出装置" style="rounded=0;whiteSpace=wrap;html=1;fontSize=14;" vertex="1" parent="1">
          <mxGeometry x="2020" y="100" width="85" height="40" as="geometry" />
        </mxCell>
        <mxCell id="wLuzzO7tyQ4Eh8L9m44y-55" style="edgeStyle=orthogonalEdgeStyle;rounded=0;orthogonalLoop=1;jettySize=auto;html=1;exitX=0.5;exitY=0;exitDx=0;exitDy=0;entryX=0.5;entryY=1;entryDx=0;entryDy=0;startArrow=none;startFill=0;endArrow=none;endFill=0;" edge="1" parent="1" source="wLuzzO7tyQ4Eh8L9m44y-54" target="wLuzzO7tyQ4Eh8L9m44y-38">
          <mxGeometry relative="1" as="geometry" />
        </mxCell>
        <mxCell id="wLuzzO7tyQ4Eh8L9m44y-54" value="模拟输入输出信号装置" style="rounded=0;whiteSpace=wrap;html=1;fontSize=14;" vertex="1" parent="1">
          <mxGeometry x="1973" y="610" width="85" height="40" as="geometry" />
        </mxCell>
        <mxCell id="wLuzzO7tyQ4Eh8L9m44y-56" value="" style="swimlane;startSize=0;" vertex="1" parent="1">
          <mxGeometry x="250" y="220" width="620" height="330" as="geometry">
            <mxRectangle x="650" y="230" width="50" height="40" as="alternateBounds" />
          </mxGeometry>
        </mxCell>
        <mxCell id="wLuzzO7tyQ4Eh8L9m44y-57" value="输入输出模块" style="text;html=1;strokeColor=none;fillColor=none;align=center;verticalAlign=middle;whiteSpace=wrap;rounded=0;fontSize=14;" vertex="1" parent="wLuzzO7tyQ4Eh8L9m44y-56">
          <mxGeometry x="20" y="10" width="100" height="20" as="geometry" />
        </mxCell>
        <mxCell id="wLuzzO7tyQ4Eh8L9m44y-58" style="edgeStyle=orthogonalEdgeStyle;rounded=0;orthogonalLoop=1;jettySize=auto;html=1;exitX=1;exitY=0.5;exitDx=0;exitDy=0;entryX=0;entryY=0.5;entryDx=0;entryDy=0;startArrow=none;startFill=0;endArrow=none;endFill=0;" edge="1" parent="wLuzzO7tyQ4Eh8L9m44y-56" source="wLuzzO7tyQ4Eh8L9m44y-59" target="wLuzzO7tyQ4Eh8L9m44y-72">
          <mxGeometry relative="1" as="geometry" />
        </mxCell>
        <mxCell id="wLuzzO7tyQ4Eh8L9m44y-59" value="实时总线接口" style="rounded=0;whiteSpace=wrap;html=1;fontSize=14;" vertex="1" parent="wLuzzO7tyQ4Eh8L9m44y-56">
          <mxGeometry x="30" y="78.5" width="50" height="50" as="geometry" />
        </mxCell>
        <mxCell id="wLuzzO7tyQ4Eh8L9m44y-60" style="edgeStyle=orthogonalEdgeStyle;rounded=0;orthogonalLoop=1;jettySize=auto;html=1;exitX=1;exitY=0.5;exitDx=0;exitDy=0;entryX=0;entryY=0.5;entryDx=0;entryDy=0;startArrow=none;startFill=0;endArrow=none;endFill=0;" edge="1" parent="wLuzzO7tyQ4Eh8L9m44y-56" source="wLuzzO7tyQ4Eh8L9m44y-61" target="wLuzzO7tyQ4Eh8L9m44y-72">
          <mxGeometry relative="1" as="geometry" />
        </mxCell>
        <mxCell id="wLuzzO7tyQ4Eh8L9m44y-61" value="实时总线接口" style="rounded=0;whiteSpace=wrap;html=1;fontSize=14;" vertex="1" parent="wLuzzO7tyQ4Eh8L9m44y-56">
          <mxGeometry x="30" y="139.5" width="50" height="50" as="geometry" />
        </mxCell>
        <mxCell id="wLuzzO7tyQ4Eh8L9m44y-62" value="" style="edgeStyle=orthogonalEdgeStyle;rounded=0;orthogonalLoop=1;jettySize=auto;html=1;fontSize=14;startArrow=none;startFill=0;fillColor=#E6E6E6;entryX=0.005;entryY=0.376;entryDx=0;entryDy=0;entryPerimeter=0;endArrow=none;endFill=0;" edge="1" parent="wLuzzO7tyQ4Eh8L9m44y-56" source="wLuzzO7tyQ4Eh8L9m44y-63" target="wLuzzO7tyQ4Eh8L9m44y-66">
          <mxGeometry relative="1" as="geometry" />
        </mxCell>
        <mxCell id="wLuzzO7tyQ4Eh8L9m44y-63" value="总线从站控制芯片" style="rounded=0;whiteSpace=wrap;html=1;fontSize=14;" vertex="1" parent="wLuzzO7tyQ4Eh8L9m44y-56">
          <mxGeometry x="200" y="109.5" width="50" height="50" as="geometry" />
        </mxCell>
        <mxCell id="wLuzzO7tyQ4Eh8L9m44y-64" style="edgeStyle=orthogonalEdgeStyle;rounded=0;orthogonalLoop=1;jettySize=auto;html=1;exitX=0.25;exitY=1;exitDx=0;exitDy=0;entryX=0.448;entryY=0.011;entryDx=0;entryDy=0;entryPerimeter=0;fontSize=14;startArrow=none;startFill=0;fillColor=#E6E6E6;endArrow=none;endFill=0;" edge="1" parent="wLuzzO7tyQ4Eh8L9m44y-56" source="wLuzzO7tyQ4Eh8L9m44y-66" target="wLuzzO7tyQ4Eh8L9m44y-67">
          <mxGeometry relative="1" as="geometry" />
        </mxCell>
        <mxCell id="wLuzzO7tyQ4Eh8L9m44y-65" style="edgeStyle=orthogonalEdgeStyle;rounded=0;orthogonalLoop=1;jettySize=auto;html=1;exitX=1;exitY=0.5;exitDx=0;exitDy=0;entryX=0;entryY=0.5;entryDx=0;entryDy=0;endArrow=none;endFill=0;" edge="1" parent="wLuzzO7tyQ4Eh8L9m44y-56" source="wLuzzO7tyQ4Eh8L9m44y-66" target="wLuzzO7tyQ4Eh8L9m44y-70">
          <mxGeometry relative="1" as="geometry" />
        </mxCell>
        <mxCell id="wLuzzO7tyQ4Eh8L9m44y-66" value="MCU&lt;br&gt;微控制单元芯片" style="rounded=0;whiteSpace=wrap;html=1;fontSize=14;" vertex="1" parent="wLuzzO7tyQ4Eh8L9m44y-56">
          <mxGeometry x="271" y="109.5" width="85" height="66" as="geometry" />
        </mxCell>
        <mxCell id="wLuzzO7tyQ4Eh8L9m44y-67" value="高频子周期数据存储器" style="rounded=0;whiteSpace=wrap;html=1;fontSize=14;" vertex="1" parent="wLuzzO7tyQ4Eh8L9m44y-56">
          <mxGeometry x="271" y="201.5" width="59" height="50" as="geometry" />
        </mxCell>
        <mxCell id="wLuzzO7tyQ4Eh8L9m44y-68" style="edgeStyle=orthogonalEdgeStyle;rounded=0;orthogonalLoop=1;jettySize=auto;html=1;exitX=0.5;exitY=0;exitDx=0;exitDy=0;startArrow=none;startFill=0;endArrow=none;endFill=0;entryX=0.5;entryY=1;entryDx=0;entryDy=0;" edge="1" parent="wLuzzO7tyQ4Eh8L9m44y-56" source="wLuzzO7tyQ4Eh8L9m44y-70" target="wLuzzO7tyQ4Eh8L9m44y-73">
          <mxGeometry relative="1" as="geometry">
            <mxPoint x="475" y="57" as="targetPoint" />
          </mxGeometry>
        </mxCell>
        <mxCell id="wLuzzO7tyQ4Eh8L9m44y-69" style="edgeStyle=orthogonalEdgeStyle;rounded=0;orthogonalLoop=1;jettySize=auto;html=1;exitX=0.5;exitY=1;exitDx=0;exitDy=0;entryX=0.5;entryY=0;entryDx=0;entryDy=0;startArrow=none;startFill=0;endArrow=none;endFill=0;" edge="1" parent="wLuzzO7tyQ4Eh8L9m44y-56" source="wLuzzO7tyQ4Eh8L9m44y-70" target="wLuzzO7tyQ4Eh8L9m44y-74">
          <mxGeometry relative="1" as="geometry" />
        </mxCell>
        <mxCell id="wLuzzO7tyQ4Eh8L9m44y-70" value="FPGA可编程逻辑处理单元" style="rounded=0;whiteSpace=wrap;html=1;fontSize=14;" vertex="1" parent="wLuzzO7tyQ4Eh8L9m44y-56">
          <mxGeometry x="456" y="109.5" width="80" height="66" as="geometry" />
        </mxCell>
        <mxCell id="wLuzzO7tyQ4Eh8L9m44y-71" style="edgeStyle=orthogonalEdgeStyle;rounded=0;orthogonalLoop=1;jettySize=auto;html=1;exitX=1;exitY=0.5;exitDx=0;exitDy=0;entryX=0;entryY=0.5;entryDx=0;entryDy=0;startArrow=none;startFill=0;endArrow=none;endFill=0;" edge="1" parent="wLuzzO7tyQ4Eh8L9m44y-56" source="wLuzzO7tyQ4Eh8L9m44y-72" target="wLuzzO7tyQ4Eh8L9m44y-63">
          <mxGeometry relative="1" as="geometry" />
        </mxCell>
        <mxCell id="wLuzzO7tyQ4Eh8L9m44y-72" value="网络接口芯片" style="rounded=0;whiteSpace=wrap;html=1;fontSize=14;" vertex="1" parent="wLuzzO7tyQ4Eh8L9m44y-56">
          <mxGeometry x="130" y="109.5" width="50" height="50" as="geometry" />
        </mxCell>
        <mxCell id="wLuzzO7tyQ4Eh8L9m44y-73" value="数字输入输出接口" style="rounded=0;whiteSpace=wrap;html=1;fontSize=14;" vertex="1" parent="wLuzzO7tyQ4Eh8L9m44y-56">
          <mxGeometry x="391" y="20" width="210" height="35" as="geometry" />
        </mxCell>
        <mxCell id="wLuzzO7tyQ4Eh8L9m44y-74" value="模拟输入输出接口" style="rounded=0;whiteSpace=wrap;html=1;fontSize=14;" vertex="1" parent="wLuzzO7tyQ4Eh8L9m44y-56">
          <mxGeometry x="391" y="270" width="210" height="35" as="geometry" />
        </mxCell>
        <mxCell id="wLuzzO7tyQ4Eh8L9m44y-75" value="电源接口" style="rounded=0;whiteSpace=wrap;html=1;fontSize=14;" vertex="1" parent="wLuzzO7tyQ4Eh8L9m44y-56">
          <mxGeometry x="20" y="220" width="40" height="80" as="geometry" />
        </mxCell>
        <mxCell id="wLuzzO7tyQ4Eh8L9m44y-76" style="edgeStyle=orthogonalEdgeStyle;rounded=0;orthogonalLoop=1;jettySize=auto;html=1;exitX=0;exitY=0.5;exitDx=0;exitDy=0;entryX=1;entryY=0.75;entryDx=0;entryDy=0;startArrow=none;startFill=0;endArrow=none;endFill=0;" edge="1" parent="wLuzzO7tyQ4Eh8L9m44y-56" source="wLuzzO7tyQ4Eh8L9m44y-77" target="wLuzzO7tyQ4Eh8L9m44y-75">
          <mxGeometry relative="1" as="geometry" />
        </mxCell>
        <mxCell id="wLuzzO7tyQ4Eh8L9m44y-77" value="电源模块" style="rounded=0;whiteSpace=wrap;html=1;fontSize=14;" vertex="1" parent="wLuzzO7tyQ4Eh8L9m44y-56">
          <mxGeometry x="85" y="260" width="85" height="40" as="geometry" />
        </mxCell>
        <mxCell id="wLuzzO7tyQ4Eh8L9m44y-79" style="edgeStyle=orthogonalEdgeStyle;rounded=0;orthogonalLoop=1;jettySize=auto;html=1;exitX=1;exitY=0.5;exitDx=0;exitDy=0;entryX=0;entryY=0.5;entryDx=0;entryDy=0;startArrow=none;startFill=0;endArrow=none;endFill=0;" edge="1" parent="1" source="wLuzzO7tyQ4Eh8L9m44y-78" target="wLuzzO7tyQ4Eh8L9m44y-3">
          <mxGeometry relative="1" as="geometry" />
        </mxCell>
        <mxCell id="wLuzzO7tyQ4Eh8L9m44y-78" value="基于PC的控制器" style="rounded=0;whiteSpace=wrap;html=1;fontSize=14;" vertex="1" parent="1">
          <mxGeometry x="1300" y="279" width="110" height="70" as="geometry" />
        </mxCell>
        <mxCell id="wLuzzO7tyQ4Eh8L9m44y-80" value="" style="line;strokeWidth=1;html=1;fontSize=14;fillColor=#E6E6E6;dashed=1;" vertex="1" parent="1">
          <mxGeometry x="90" y="930" width="530" height="10" as="geometry" />
        </mxCell>
        <mxCell id="wLuzzO7tyQ4Eh8L9m44y-81" value="状态1" style="text;html=1;strokeColor=none;fillColor=none;align=center;verticalAlign=middle;whiteSpace=wrap;rounded=0;dashed=1;fontSize=14;" vertex="1" parent="1">
          <mxGeometry x="40" y="925.5" width="40" height="20" as="geometry" />
        </mxCell>
        <mxCell id="wLuzzO7tyQ4Eh8L9m44y-82" value="" style="line;strokeWidth=1;html=1;fontSize=14;fillColor=#E6E6E6;dashed=1;" vertex="1" parent="1">
          <mxGeometry x="90" y="725" width="530" height="10" as="geometry" />
        </mxCell>
        <mxCell id="wLuzzO7tyQ4Eh8L9m44y-83" value="状态2" style="text;html=1;strokeColor=none;fillColor=none;align=center;verticalAlign=middle;whiteSpace=wrap;rounded=0;dashed=1;fontSize=14;" vertex="1" parent="1">
          <mxGeometry x="40" y="720.5" width="40" height="20" as="geometry" />
        </mxCell>
        <mxCell id="wLuzzO7tyQ4Eh8L9m44y-84" value="" style="line;strokeWidth=2;html=1;fontSize=14;fillColor=#E6E6E6;" vertex="1" parent="1">
          <mxGeometry x="110" y="930" width="160" height="10" as="geometry" />
        </mxCell>
        <mxCell id="wLuzzO7tyQ4Eh8L9m44y-85" value="" style="line;strokeWidth=2;direction=south;html=1;fontSize=14;fillColor=#E6E6E6;shadow=0;" vertex="1" parent="1">
          <mxGeometry x="265" y="730" width="10" height="206" as="geometry" />
        </mxCell>
        <mxCell id="wLuzzO7tyQ4Eh8L9m44y-86" value="" style="line;strokeWidth=2;html=1;fontSize=14;fillColor=#E6E6E6;" vertex="1" parent="1">
          <mxGeometry x="269" y="725" width="161" height="10" as="geometry" />
        </mxCell>
        <mxCell id="wLuzzO7tyQ4Eh8L9m44y-87" value="" style="line;strokeWidth=2;direction=south;html=1;fontSize=14;fillColor=#E6E6E6;shadow=0;" vertex="1" parent="1">
          <mxGeometry x="425" y="729" width="10" height="206" as="geometry" />
        </mxCell>
        <mxCell id="wLuzzO7tyQ4Eh8L9m44y-88" value="" style="line;strokeWidth=2;html=1;fontSize=14;fillColor=#E6E6E6;" vertex="1" parent="1">
          <mxGeometry x="429" y="930" width="161" height="10" as="geometry" />
        </mxCell>
        <mxCell id="wLuzzO7tyQ4Eh8L9m44y-89" value="周期1" style="text;html=1;strokeColor=none;fillColor=none;align=center;verticalAlign=middle;whiteSpace=wrap;rounded=0;dashed=1;fontSize=14;" vertex="1" parent="1">
          <mxGeometry x="170" y="936" width="40" height="20" as="geometry" />
        </mxCell>
        <mxCell id="wLuzzO7tyQ4Eh8L9m44y-90" value="周期2" style="text;html=1;strokeColor=none;fillColor=none;align=center;verticalAlign=middle;whiteSpace=wrap;rounded=0;dashed=1;fontSize=14;" vertex="1" parent="1">
          <mxGeometry x="329.5" y="705" width="40" height="20" as="geometry" />
        </mxCell>
        <mxCell id="wLuzzO7tyQ4Eh8L9m44y-91" value="周期3" style="text;html=1;strokeColor=none;fillColor=none;align=center;verticalAlign=middle;whiteSpace=wrap;rounded=0;dashed=1;fontSize=14;" vertex="1" parent="1">
          <mxGeometry x="510" y="936" width="40" height="20" as="geometry" />
        </mxCell>
        <mxCell id="wLuzzO7tyQ4Eh8L9m44y-92" value="" style="line;strokeWidth=1;html=1;fontSize=14;fillColor=#E6E6E6;dashed=1;" vertex="1" parent="1">
          <mxGeometry x="720" y="931.5" width="530" height="10" as="geometry" />
        </mxCell>
        <mxCell id="wLuzzO7tyQ4Eh8L9m44y-93" value="状态1" style="text;html=1;strokeColor=none;fillColor=none;align=center;verticalAlign=middle;whiteSpace=wrap;rounded=0;dashed=1;fontSize=14;" vertex="1" parent="1">
          <mxGeometry x="670" y="927" width="40" height="20" as="geometry" />
        </mxCell>
        <mxCell id="wLuzzO7tyQ4Eh8L9m44y-94" value="" style="line;strokeWidth=1;html=1;fontSize=14;fillColor=#E6E6E6;dashed=1;" vertex="1" parent="1">
          <mxGeometry x="720" y="726.5" width="530" height="10" as="geometry" />
        </mxCell>
        <mxCell id="wLuzzO7tyQ4Eh8L9m44y-95" value="状态2" style="text;html=1;strokeColor=none;fillColor=none;align=center;verticalAlign=middle;whiteSpace=wrap;rounded=0;dashed=1;fontSize=14;" vertex="1" parent="1">
          <mxGeometry x="670" y="722" width="40" height="20" as="geometry" />
        </mxCell>
        <mxCell id="wLuzzO7tyQ4Eh8L9m44y-96" value="" style="line;strokeWidth=2;html=1;fontSize=14;fillColor=#E6E6E6;" vertex="1" parent="1">
          <mxGeometry x="740" y="931.5" width="160" height="10" as="geometry" />
        </mxCell>
        <mxCell id="wLuzzO7tyQ4Eh8L9m44y-97" value="" style="line;strokeWidth=2;direction=south;html=1;fontSize=14;fillColor=#E6E6E6;shadow=0;" vertex="1" parent="1">
          <mxGeometry x="895" y="731.5" width="10" height="206" as="geometry" />
        </mxCell>
        <mxCell id="wLuzzO7tyQ4Eh8L9m44y-98" value="" style="line;strokeWidth=2;direction=south;html=1;fontSize=14;fillColor=#E6E6E6;shadow=0;" vertex="1" parent="1">
          <mxGeometry x="1055" y="730.5" width="10" height="206" as="geometry" />
        </mxCell>
        <mxCell id="wLuzzO7tyQ4Eh8L9m44y-99" value="" style="line;strokeWidth=2;html=1;fontSize=14;fillColor=#E6E6E6;" vertex="1" parent="1">
          <mxGeometry x="1059" y="931.5" width="161" height="10" as="geometry" />
        </mxCell>
        <mxCell id="wLuzzO7tyQ4Eh8L9m44y-100" value="周期1" style="text;html=1;strokeColor=none;fillColor=none;align=center;verticalAlign=middle;whiteSpace=wrap;rounded=0;dashed=1;fontSize=14;" vertex="1" parent="1">
          <mxGeometry x="800" y="937.5" width="40" height="20" as="geometry" />
        </mxCell>
        <mxCell id="wLuzzO7tyQ4Eh8L9m44y-101" value="周期2" style="text;html=1;strokeColor=none;fillColor=none;align=center;verticalAlign=middle;whiteSpace=wrap;rounded=0;dashed=1;fontSize=14;" vertex="1" parent="1">
          <mxGeometry x="959.5" y="706.5" width="40" height="20" as="geometry" />
        </mxCell>
        <mxCell id="wLuzzO7tyQ4Eh8L9m44y-102" value="周期3" style="text;html=1;strokeColor=none;fillColor=none;align=center;verticalAlign=middle;whiteSpace=wrap;rounded=0;dashed=1;fontSize=14;" vertex="1" parent="1">
          <mxGeometry x="1140" y="937.5" width="40" height="20" as="geometry" />
        </mxCell>
        <mxCell id="wLuzzO7tyQ4Eh8L9m44y-103" value="" style="line;strokeWidth=2;direction=south;html=1;fontSize=14;fillColor=#E6E6E6;shadow=0;" vertex="1" parent="1">
          <mxGeometry x="900" y="731.5" width="10" height="206" as="geometry" />
        </mxCell>
        <mxCell id="wLuzzO7tyQ4Eh8L9m44y-104" value="" style="line;strokeWidth=2;direction=south;html=1;fontSize=14;fillColor=#E6E6E6;shadow=0;" vertex="1" parent="1">
          <mxGeometry x="905" y="731.5" width="10" height="206" as="geometry" />
        </mxCell>
        <mxCell id="wLuzzO7tyQ4Eh8L9m44y-105" value="" style="line;strokeWidth=2;html=1;shadow=0;fontSize=14;fillColor=#E6E6E6;" vertex="1" parent="1">
          <mxGeometry x="899" y="730" width="7" height="3" as="geometry" />
        </mxCell>
        <mxCell id="wLuzzO7tyQ4Eh8L9m44y-106" value="" style="line;strokeWidth=2;html=1;shadow=0;fontSize=14;fillColor=#E6E6E6;" vertex="1" parent="1">
          <mxGeometry x="904" y="935" width="7" height="3" as="geometry" />
        </mxCell>
        <mxCell id="wLuzzO7tyQ4Eh8L9m44y-107" value="" style="line;strokeWidth=2;html=1;shadow=0;fontSize=14;fillColor=#E6E6E6;" vertex="1" parent="1">
          <mxGeometry x="909" y="730" width="14" height="3" as="geometry" />
        </mxCell>
        <mxCell id="wLuzzO7tyQ4Eh8L9m44y-108" value="" style="line;strokeWidth=2;direction=south;html=1;fontSize=14;fillColor=#E6E6E6;shadow=0;" vertex="1" parent="1">
          <mxGeometry x="917" y="731" width="10" height="206" as="geometry" />
        </mxCell>
        <mxCell id="wLuzzO7tyQ4Eh8L9m44y-109" value="" style="line;strokeWidth=2;html=1;shadow=0;fontSize=14;fillColor=#E6E6E6;" vertex="1" parent="1">
          <mxGeometry x="921" y="935" width="29" height="3" as="geometry" />
        </mxCell>
        <mxCell id="wLuzzO7tyQ4Eh8L9m44y-110" value="" style="line;strokeWidth=2;direction=south;html=1;fontSize=14;fillColor=#E6E6E6;shadow=0;" vertex="1" parent="1">
          <mxGeometry x="944" y="731.5" width="10" height="206" as="geometry" />
        </mxCell>
        <mxCell id="wLuzzO7tyQ4Eh8L9m44y-111" value="" style="line;strokeWidth=2;html=1;shadow=0;fontSize=14;fillColor=#E6E6E6;" vertex="1" parent="1">
          <mxGeometry x="948" y="725" width="22" height="13" as="geometry" />
        </mxCell>
        <mxCell id="wLuzzO7tyQ4Eh8L9m44y-112" value="" style="group" vertex="1" connectable="0" parent="1">
          <mxGeometry x="970" y="830" width="80" height="40" as="geometry" />
        </mxCell>
        <mxCell id="wLuzzO7tyQ4Eh8L9m44y-113" value="" style="shape=waypoint;sketch=0;fillStyle=solid;size=6;pointerEvents=1;points=[];fillColor=none;resizable=0;rotatable=0;perimeter=centerPerimeter;snapToPoint=1;fontSize=14;" vertex="1" parent="wLuzzO7tyQ4Eh8L9m44y-112">
          <mxGeometry width="40" height="40" as="geometry" />
        </mxCell>
        <mxCell id="wLuzzO7tyQ4Eh8L9m44y-114" value="" style="shape=waypoint;sketch=0;fillStyle=solid;size=6;pointerEvents=1;points=[];fillColor=none;resizable=0;rotatable=0;perimeter=centerPerimeter;snapToPoint=1;fontSize=14;" vertex="1" parent="wLuzzO7tyQ4Eh8L9m44y-112">
          <mxGeometry x="20" width="40" height="40" as="geometry" />
        </mxCell>
        <mxCell id="wLuzzO7tyQ4Eh8L9m44y-115" value="" style="shape=waypoint;sketch=0;fillStyle=solid;size=6;pointerEvents=1;points=[];fillColor=none;resizable=0;rotatable=0;perimeter=centerPerimeter;snapToPoint=1;fontSize=14;" vertex="1" parent="wLuzzO7tyQ4Eh8L9m44y-112">
          <mxGeometry x="40" width="40" height="40" as="geometry" />
        </mxCell>
        <mxCell id="wLuzzO7tyQ4Eh8L9m44y-116" value="" style="line;strokeWidth=2;direction=south;html=1;fontSize=14;fillColor=#E6E6E6;shadow=0;" vertex="1" parent="1">
          <mxGeometry x="964.5" y="730.5" width="10" height="206" as="geometry" />
        </mxCell>
        <mxCell id="wLuzzO7tyQ4Eh8L9m44y-117" value="子周期1...n" style="text;html=1;strokeColor=none;fillColor=none;align=center;verticalAlign=middle;whiteSpace=wrap;rounded=0;dashed=1;fontSize=14;" vertex="1" parent="1">
          <mxGeometry x="927" y="940" width="90" height="20" as="geometry" />
        </mxCell>
        <mxCell id="wLuzzO7tyQ4Eh8L9m44y-118" value="" style="line;strokeWidth=1;html=1;fontSize=14;fillColor=#E6E6E6;dashed=1;" vertex="1" parent="1">
          <mxGeometry x="90" y="1405" width="530" height="10" as="geometry" />
        </mxCell>
        <mxCell id="wLuzzO7tyQ4Eh8L9m44y-119" value="状态1" style="text;html=1;strokeColor=none;fillColor=none;align=center;verticalAlign=middle;whiteSpace=wrap;rounded=0;dashed=1;fontSize=14;" vertex="1" parent="1">
          <mxGeometry x="40" y="1400.5" width="40" height="20" as="geometry" />
        </mxCell>
        <mxCell id="wLuzzO7tyQ4Eh8L9m44y-120" value="" style="line;strokeWidth=1;html=1;fontSize=14;fillColor=#E6E6E6;dashed=1;" vertex="1" parent="1">
          <mxGeometry x="90" y="1196" width="530" height="10" as="geometry" />
        </mxCell>
        <mxCell id="wLuzzO7tyQ4Eh8L9m44y-121" value="状态n" style="text;html=1;strokeColor=none;fillColor=none;align=center;verticalAlign=middle;whiteSpace=wrap;rounded=0;dashed=1;fontSize=14;" vertex="1" parent="1">
          <mxGeometry x="40" y="1195.5" width="40" height="20" as="geometry" />
        </mxCell>
        <mxCell id="wLuzzO7tyQ4Eh8L9m44y-122" value="" style="line;strokeWidth=2;html=1;fontSize=14;fillColor=#E6E6E6;" vertex="1" parent="1">
          <mxGeometry x="110" y="1405" width="160" height="10" as="geometry" />
        </mxCell>
        <mxCell id="wLuzzO7tyQ4Eh8L9m44y-123" value="" style="line;strokeWidth=2;direction=south;html=1;fontSize=14;fillColor=#E6E6E6;shadow=0;" vertex="1" parent="1">
          <mxGeometry x="265" y="1330" width="10" height="81" as="geometry" />
        </mxCell>
        <mxCell id="wLuzzO7tyQ4Eh8L9m44y-124" value="" style="line;strokeWidth=2;html=1;fontSize=14;fillColor=#E6E6E6;" vertex="1" parent="1">
          <mxGeometry x="269" y="1327" width="161" height="10" as="geometry" />
        </mxCell>
        <mxCell id="wLuzzO7tyQ4Eh8L9m44y-125" value="" style="line;strokeWidth=2;direction=south;html=1;fontSize=14;fillColor=#E6E6E6;shadow=0;" vertex="1" parent="1">
          <mxGeometry x="425" y="1200" width="10" height="133" as="geometry" />
        </mxCell>
        <mxCell id="wLuzzO7tyQ4Eh8L9m44y-126" value="" style="line;strokeWidth=2;html=1;fontSize=14;fillColor=#E6E6E6;" vertex="1" parent="1">
          <mxGeometry x="430" y="1196" width="161" height="10" as="geometry" />
        </mxCell>
        <mxCell id="wLuzzO7tyQ4Eh8L9m44y-127" value="周期1" style="text;html=1;strokeColor=none;fillColor=none;align=center;verticalAlign=middle;whiteSpace=wrap;rounded=0;dashed=1;fontSize=14;" vertex="1" parent="1">
          <mxGeometry x="170" y="1411" width="40" height="20" as="geometry" />
        </mxCell>
        <mxCell id="wLuzzO7tyQ4Eh8L9m44y-128" value="周期2" style="text;html=1;strokeColor=none;fillColor=none;align=center;verticalAlign=middle;whiteSpace=wrap;rounded=0;dashed=1;fontSize=14;" vertex="1" parent="1">
          <mxGeometry x="329.5" y="1180" width="40" height="20" as="geometry" />
        </mxCell>
        <mxCell id="wLuzzO7tyQ4Eh8L9m44y-129" value="周期3" style="text;html=1;strokeColor=none;fillColor=none;align=center;verticalAlign=middle;whiteSpace=wrap;rounded=0;dashed=1;fontSize=14;" vertex="1" parent="1">
          <mxGeometry x="510" y="1411" width="40" height="20" as="geometry" />
        </mxCell>
        <mxCell id="wLuzzO7tyQ4Eh8L9m44y-131" value="" style="line;strokeWidth=1;html=1;fontSize=14;fillColor=#E6E6E6;dashed=1;" vertex="1" parent="1">
          <mxGeometry x="90" y="1366" width="530" height="10" as="geometry" />
        </mxCell>
        <mxCell id="wLuzzO7tyQ4Eh8L9m44y-132" value="" style="line;strokeWidth=1;html=1;fontSize=14;fillColor=#E6E6E6;dashed=1;" vertex="1" parent="1">
          <mxGeometry x="90" y="1327" width="530" height="10" as="geometry" />
        </mxCell>
        <mxCell id="wLuzzO7tyQ4Eh8L9m44y-134" value="状态2" style="text;html=1;strokeColor=none;fillColor=none;align=center;verticalAlign=middle;whiteSpace=wrap;rounded=0;dashed=1;fontSize=14;" vertex="1" parent="1">
          <mxGeometry x="40" y="1361" width="40" height="20" as="geometry" />
        </mxCell>
        <mxCell id="wLuzzO7tyQ4Eh8L9m44y-135" value="状态3" style="text;html=1;strokeColor=none;fillColor=none;align=center;verticalAlign=middle;whiteSpace=wrap;rounded=0;dashed=1;fontSize=14;" vertex="1" parent="1">
          <mxGeometry x="40" y="1324" width="40" height="20" as="geometry" />
        </mxCell>
        <mxCell id="wLuzzO7tyQ4Eh8L9m44y-137" value="" style="line;strokeWidth=2;direction=south;html=1;fontSize=14;fillColor=#E6E6E6;shadow=0;" vertex="1" parent="1">
          <mxGeometry x="585" y="1200" width="10" height="210" as="geometry" />
        </mxCell>
        <mxCell id="wLuzzO7tyQ4Eh8L9m44y-138" value="" style="line;strokeWidth=2;html=1;fontSize=14;fillColor=#E6E6E6;" vertex="1" parent="1">
          <mxGeometry x="590" y="1405" width="30" height="10" as="geometry" />
        </mxCell>
        <mxCell id="wLuzzO7tyQ4Eh8L9m44y-139" value="" style="line;strokeWidth=1;html=1;fontSize=14;fillColor=#E6E6E6;dashed=1;" vertex="1" parent="1">
          <mxGeometry x="732" y="1405" width="530" height="10" as="geometry" />
        </mxCell>
        <mxCell id="wLuzzO7tyQ4Eh8L9m44y-140" value="状态1" style="text;html=1;strokeColor=none;fillColor=none;align=center;verticalAlign=middle;whiteSpace=wrap;rounded=0;dashed=1;fontSize=14;" vertex="1" parent="1">
          <mxGeometry x="682" y="1400.5" width="40" height="20" as="geometry" />
        </mxCell>
        <mxCell id="wLuzzO7tyQ4Eh8L9m44y-141" value="" style="line;strokeWidth=1;html=1;fontSize=14;fillColor=#E6E6E6;dashed=1;" vertex="1" parent="1">
          <mxGeometry x="732" y="1196" width="530" height="10" as="geometry" />
        </mxCell>
        <mxCell id="wLuzzO7tyQ4Eh8L9m44y-142" value="状态n" style="text;html=1;strokeColor=none;fillColor=none;align=center;verticalAlign=middle;whiteSpace=wrap;rounded=0;dashed=1;fontSize=14;" vertex="1" parent="1">
          <mxGeometry x="682" y="1195.5" width="40" height="20" as="geometry" />
        </mxCell>
        <mxCell id="wLuzzO7tyQ4Eh8L9m44y-143" value="" style="line;strokeWidth=2;html=1;fontSize=14;fillColor=#E6E6E6;" vertex="1" parent="1">
          <mxGeometry x="752" y="1405" width="160" height="10" as="geometry" />
        </mxCell>
        <mxCell id="wLuzzO7tyQ4Eh8L9m44y-144" value="" style="line;strokeWidth=2;direction=south;html=1;fontSize=14;fillColor=#E6E6E6;shadow=0;" vertex="1" parent="1">
          <mxGeometry x="907" y="1330" width="10" height="81" as="geometry" />
        </mxCell>
        <mxCell id="wLuzzO7tyQ4Eh8L9m44y-145" value="" style="line;strokeWidth=2;html=1;fontSize=14;fillColor=#E6E6E6;" vertex="1" parent="1">
          <mxGeometry x="911" y="1327" width="161" height="10" as="geometry" />
        </mxCell>
        <mxCell id="wLuzzO7tyQ4Eh8L9m44y-146" value="" style="line;strokeWidth=2;direction=south;html=1;fontSize=14;fillColor=#E6E6E6;shadow=0;" vertex="1" parent="1">
          <mxGeometry x="1067" y="1200" width="10" height="133" as="geometry" />
        </mxCell>
        <mxCell id="wLuzzO7tyQ4Eh8L9m44y-147" value="" style="line;strokeWidth=2;html=1;fontSize=14;fillColor=#E6E6E6;" vertex="1" parent="1">
          <mxGeometry x="1072" y="1196" width="161" height="10" as="geometry" />
        </mxCell>
        <mxCell id="wLuzzO7tyQ4Eh8L9m44y-148" value="周期1" style="text;html=1;strokeColor=none;fillColor=none;align=center;verticalAlign=middle;whiteSpace=wrap;rounded=0;dashed=1;fontSize=14;" vertex="1" parent="1">
          <mxGeometry x="812" y="1411" width="40" height="20" as="geometry" />
        </mxCell>
        <mxCell id="wLuzzO7tyQ4Eh8L9m44y-149" value="周期2" style="text;html=1;strokeColor=none;fillColor=none;align=center;verticalAlign=middle;whiteSpace=wrap;rounded=0;dashed=1;fontSize=14;" vertex="1" parent="1">
          <mxGeometry x="971.5" y="1180" width="40" height="20" as="geometry" />
        </mxCell>
        <mxCell id="wLuzzO7tyQ4Eh8L9m44y-150" value="周期3" style="text;html=1;strokeColor=none;fillColor=none;align=center;verticalAlign=middle;whiteSpace=wrap;rounded=0;dashed=1;fontSize=14;" vertex="1" parent="1">
          <mxGeometry x="1152" y="1411" width="40" height="20" as="geometry" />
        </mxCell>
        <mxCell id="wLuzzO7tyQ4Eh8L9m44y-151" value="" style="line;strokeWidth=1;html=1;fontSize=14;fillColor=#E6E6E6;dashed=1;" vertex="1" parent="1">
          <mxGeometry x="732" y="1366" width="530" height="10" as="geometry" />
        </mxCell>
        <mxCell id="wLuzzO7tyQ4Eh8L9m44y-152" value="" style="line;strokeWidth=1;html=1;fontSize=14;fillColor=#E6E6E6;dashed=1;" vertex="1" parent="1">
          <mxGeometry x="732" y="1327" width="530" height="10" as="geometry" />
        </mxCell>
        <mxCell id="wLuzzO7tyQ4Eh8L9m44y-153" value="状态2" style="text;html=1;strokeColor=none;fillColor=none;align=center;verticalAlign=middle;whiteSpace=wrap;rounded=0;dashed=1;fontSize=14;" vertex="1" parent="1">
          <mxGeometry x="682" y="1361" width="40" height="20" as="geometry" />
        </mxCell>
        <mxCell id="wLuzzO7tyQ4Eh8L9m44y-154" value="状态3" style="text;html=1;strokeColor=none;fillColor=none;align=center;verticalAlign=middle;whiteSpace=wrap;rounded=0;dashed=1;fontSize=14;" vertex="1" parent="1">
          <mxGeometry x="682" y="1324" width="40" height="20" as="geometry" />
        </mxCell>
        <mxCell id="wLuzzO7tyQ4Eh8L9m44y-155" value="" style="line;strokeWidth=2;direction=south;html=1;fontSize=14;fillColor=#E6E6E6;shadow=0;" vertex="1" parent="1">
          <mxGeometry x="1227" y="1200" width="10" height="210" as="geometry" />
        </mxCell>
        <mxCell id="wLuzzO7tyQ4Eh8L9m44y-156" value="" style="line;strokeWidth=2;html=1;fontSize=14;fillColor=#E6E6E6;" vertex="1" parent="1">
          <mxGeometry x="1232" y="1405" width="30" height="10" as="geometry" />
        </mxCell>
      </root>
    </mxGraphModel>
  </diagram>
</mxfile>
